<?xml version="1.0" standalone="no"?>
<!DOCTYPE svg PUBLIC "-//W3C//DTD SVG 20010904//EN"
 "http://www.w3.org/TR/2001/REC-SVG-20010904/DTD/svg10.dtd">
<svg version="1.0" xmlns="http://www.w3.org/2000/svg"
 width="512.000000pt" height="512.000000pt" viewBox="0 0 512.000000 512.000000"
 preserveAspectRatio="xMidYMid meet">
<metadata>
Created by potrace 1.14, written by Peter Selinger 2001-2017
</metadata>
<g transform="translate(0.000000,512.000000) scale(0.100000,-0.100000)"
fill="#000000" stroke="none">
<path d="M0 2560 l0 -2560 2560 0 2560 0 0 2560 0 2560 -2560 0 -2560 0 0
-2560z m3025 2051 c160 -34 257 -77 338 -151 44 -40 57 -59 62 -91 7 -38 4
-44 -30 -79 -37 -38 -50 -56 -80 -115 -8 -16 -19 -37 -24 -45 -5 -8 -19 -40
-31 -70 -12 -30 -26 -63 -31 -72 -9 -17 -74 -216 -109 -333 -10 -33 -26 -94
-35 -135 -10 -41 -26 -105 -36 -141 -11 -36 -19 -77 -19 -91 0 -14 -7 -44 -15
-67 -14 -40 -37 -152 -55 -266 -4 -27 -15 -79 -23 -115 -8 -36 -23 -110 -32
-165 -9 -55 -25 -131 -36 -170 -10 -38 -19 -82 -19 -96 0 -14 -7 -34 -15 -45
-31 -41 -9 -59 35 -26 34 24 330 320 363 362 67 85 137 181 137 187 0 3 8 15
18 25 53 59 302 531 302 574 0 5 9 27 20 49 11 22 20 45 20 53 0 8 6 26 14 40
7 15 23 61 35 102 12 41 28 98 36 125 48 165 85 413 85 563 0 52 4 83 13 89 6
5 48 18 92 29 113 27 387 27 495 0 41 -10 90 -24 108 -32 18 -8 41 -14 52 -14
10 0 22 -5 26 -11 3 -6 21 -18 38 -26 46 -21 78 -40 85 -50 3 -5 17 -16 31
-25 14 -8 39 -35 55 -59 17 -24 33 -46 36 -49 15 -11 48 -99 59 -152 13 -68 4
-166 -22 -226 -10 -24 -18 -49 -18 -57 0 -24 -60 -139 -145 -279 -29 -48 -162
-225 -194 -258 -9 -9 -38 -43 -66 -75 -92 -106 -351 -359 -487 -475 -150 -128
-472 -372 -537 -407 -40 -22 -49 -40 -39 -75 34 -110 78 -227 104 -278 8 -14
14 -32 14 -39 0 -7 16 -45 35 -86 19 -41 35 -80 35 -87 0 -8 6 -19 14 -25 8
-7 18 -25 21 -41 3 -16 13 -34 21 -41 8 -6 14 -19 14 -29 0 -10 7 -23 15 -30
8 -6 17 -21 21 -33 6 -20 50 -89 127 -200 59 -87 154 -157 210 -157 32 0 119
24 147 41 8 5 29 16 45 24 17 9 37 19 45 24 8 5 31 16 50 25 19 9 60 33 90 52
63 40 85 40 114 1 18 -25 19 -31 8 -75 -15 -56 -76 -178 -105 -210 -11 -12
-44 -37 -71 -54 -28 -18 -55 -37 -61 -43 -9 -10 -38 -30 -90 -62 -26 -16 -35
-20 -65 -33 -14 -5 -32 -14 -40 -19 -50 -29 -184 -77 -245 -87 -62 -10 -279
-10 -320 0 -48 12 -139 49 -156 63 -8 7 -21 13 -28 13 -20 0 -123 67 -230 149
-122 94 -137 108 -227 211 -41 47 -81 92 -89 101 -8 9 -15 18 -15 22 0 3 -14
21 -30 39 -17 18 -40 52 -52 76 -12 23 -30 50 -40 59 -10 9 -18 24 -18 34 0
10 -4 21 -10 24 -12 8 -60 103 -60 120 0 12 -28 35 -43 35 -2 0 -25 -42 -51
-93 -26 -50 -58 -110 -71 -132 -13 -22 -27 -47 -32 -55 -39 -80 -219 -312
-324 -421 -114 -116 -364 -309 -401 -309 -5 0 -21 -9 -35 -20 -14 -11 -34 -20
-43 -20 -10 0 -23 -7 -30 -15 -7 -8 -20 -15 -30 -15 -9 0 -31 -7 -47 -15 -29
-15 -101 -34 -238 -66 -116 -27 -433 -7 -505 31 -10 5 -28 10 -40 10 -18 0
-57 17 -120 52 -8 4 -26 13 -40 19 -57 24 -194 150 -260 238 -59 80 -110 161
-110 175 0 7 -4 16 -9 21 -11 12 -57 130 -64 165 -3 14 -12 52 -21 85 -21 83
-36 194 -36 265 0 79 26 252 45 297 8 19 15 41 15 49 0 17 68 157 102 209 46
72 191 211 273 263 61 38 186 96 225 104 154 31 322 34 409 7 60 -19 166 -60
171 -67 3 -4 25 -20 48 -37 52 -34 123 -107 159 -161 15 -22 29 -41 33 -44 12
-10 58 -106 64 -137 7 -29 5 -32 -26 -42 -73 -23 -140 -49 -151 -60 -6 -6 -16
-11 -22 -11 -6 0 -35 -13 -65 -30 -30 -16 -66 -34 -79 -40 -13 -6 -41 -24 -61
-40 -21 -17 -42 -30 -46 -30 -5 0 -37 -25 -71 -55 -33 -30 -64 -55 -68 -55 -7
0 -95 -90 -95 -97 0 -3 -25 -33 -55 -66 -30 -34 -55 -65 -55 -70 0 -4 -16 -30
-35 -57 -19 -27 -35 -56 -35 -64 0 -7 -7 -19 -15 -26 -8 -7 -15 -19 -15 -26 0
-7 -9 -33 -19 -56 -41 -94 -51 -190 -29 -287 11 -43 23 -64 66 -107 29 -30 61
-54 73 -54 11 0 34 -7 50 -16 42 -21 193 -21 245 2 101 43 134 65 209 139 80
79 157 184 207 280 36 67 98 203 98 212 1 4 9 26 20 48 11 22 19 45 20 52 0 7
6 27 14 45 8 18 24 67 36 108 12 41 28 95 35 120 12 41 23 87 71 300 17 76 42
218 54 310 4 36 15 117 24 180 9 63 23 169 31 235 17 134 32 235 45 310 5 28
14 86 20 130 21 148 28 190 43 260 8 39 25 117 36 175 25 122 46 205 68 274 9
28 20 67 23 88 11 61 8 60 -255 -84 -38 -21 -84 -45 -102 -53 -17 -8 -34 -19
-38 -25 -3 -5 -13 -10 -22 -10 -8 0 -26 -9 -40 -20 -14 -11 -33 -20 -42 -20
-10 0 -22 -5 -29 -12 -7 -7 -36 -26 -66 -43 -132 -74 -186 -107 -219 -133 -19
-15 -45 -34 -58 -42 -70 -46 -258 -229 -374 -363 -53 -60 -67 -56 -165 42 -85
86 -140 163 -192 271 -40 82 -46 112 -55 245 -12 204 64 354 244 479 29 20 59
36 67 36 7 0 19 6 25 14 18 22 252 93 381 116 63 11 135 25 160 30 131 30 589
72 855 79 500 14 651 12 750 -8z"/>
</g>
</svg>
